<svg xmlns="http://www.w3.org/2000/svg" width="300" height="276" viewBox="0 0 300 276" role="img" aria-label="Handlebars.java — Fixed EnumMap lookups for enum constants with class bodies. Java. Explore repository."><title>Handlebars.java — Fixed EnumMap lookups for enum constants with class bodies. Java. Explore repository.</title><defs><linearGradient id="surface" x1="0" y1="0" x2="1" y2="1"><stop stop-color="#f5efff"/><stop offset="1" stop-color="#ffffff"/></linearGradient><linearGradient id="accent" x1="0" x2="1"><stop stop-color="#7540c8"/><stop offset="1" stop-color="#aa68d3"/></linearGradient></defs><rect x="1" y="1" width="298" height="274" rx="14" fill="url(#surface)" stroke="#d8c5ed"/><rect x="16" y="1" width="268" height="4" rx="2" fill="url(#accent)"/><rect x="20" y="22" width="42" height="42" rx="11" fill="#f5efff" stroke="#d8c5ed"/><g transform="translate(29 31) scale(1)" fill="none" stroke="#7540c8" stroke-width="1.8" stroke-linecap="round" stroke-linejoin="round">
  <path d="m18 16 4-4-4-4" />
  <path d="m6 8-4 4 4 4" />
  <path d="m14.5 4-5 16" />
</g><text x="76" y="46" font-family="Segoe UI, Arial, sans-serif" font-size="10.5" font-weight="600" fill="#7540c8" letter-spacing=".5">TEMPLATE ENGINE</text><text x="20" y="86" font-family="Segoe UI, Arial, sans-serif" font-size="22" font-weight="700" fill="#1f2328" >Handlebars.java</text><text x="20" y="122" font-family="Segoe UI, Arial, sans-serif" font-size="16" font-weight="400" fill="#505e6c" >Fixed EnumMap lookups for enum</text><text x="20" y="145" font-family="Segoe UI, Arial, sans-serif" font-size="16" font-weight="400" fill="#505e6c" >constants with class bodies.</text><path d="M20 221H280" stroke="#d8c5ed"/><rect x="20" y="231" width="55" height="26" rx="7" fill="#f5efff"/><text x="33" y="249" font-family="Segoe UI, Arial, sans-serif" font-size="13" font-weight="600" fill="#7540c8" >Java</text><text x="134" y="249" font-family="Segoe UI, Arial, sans-serif" font-size="12.5" font-weight="600" fill="#7540c8" >Explore repository</text><g transform="translate(264 235) scale(0.7083333333333334)" fill="none" stroke="#7540c8" stroke-width="1.8" stroke-linecap="round" stroke-linejoin="round">
  <path d="M7 7h10v10" />
  <path d="M7 17 17 7" />
</g></svg>
