<svg xmlns="http://www.w3.org/2000/svg" width="300" height="276" viewBox="0 0 300 276" role="img" aria-label="InterviewGuide — Improving knowledge-base upload concurrency and PDF report rendering and navigation. Java. Explore repository."><title>InterviewGuide — Improving knowledge-base upload concurrency and PDF report rendering and navigation. Java. Explore repository.</title><defs><linearGradient id="surface" x1="0" y1="0" x2="1" y2="1"><stop stop-color="#ebf9f6"/><stop offset="1" stop-color="#ffffff"/></linearGradient><linearGradient id="accent" x1="0" x2="1"><stop stop-color="#087c80"/><stop offset="1" stop-color="#2bab98"/></linearGradient></defs><rect x="1" y="1" width="298" height="274" rx="14" fill="url(#surface)" stroke="#b7ddd7"/><rect x="16" y="1" width="268" height="4" rx="2" fill="url(#accent)"/><rect x="20" y="22" width="42" height="42" rx="11" fill="#ebf9f6" stroke="#b7ddd7"/><g transform="translate(29 31) scale(1)" fill="none" stroke="#087c80" stroke-width="1.8" stroke-linecap="round" stroke-linejoin="round">
  <path d="M12 5v16" />
  <path d="M20.001 19A2 2 0 0022 17V5a2 2 0 00-1.999-2L16 3.002A5 5 0 0012 5a5 5 0 00-4-2H4a2 2 0 00-2 2v12a2 2 0 001.999 2H8a5 5 0 014 2 5 5 0 014-2z" />
</g><text x="76" y="46" font-family="Segoe UI, Arial, sans-serif" font-size="10.5" font-weight="600" fill="#087c80" letter-spacing=".5">KNOWLEDGE &amp; REPORTING</text><text x="20" y="86" font-family="Segoe UI, Arial, sans-serif" font-size="22" font-weight="700" fill="#1f2328" >InterviewGuide</text><text x="20" y="122" font-family="Segoe UI, Arial, sans-serif" font-size="16" font-weight="400" fill="#505e6c" >Improving knowledge-base upload</text><text x="20" y="145" font-family="Segoe UI, Arial, sans-serif" font-size="16" font-weight="400" fill="#505e6c" >concurrency and PDF report</text><text x="20" y="168" font-family="Segoe UI, Arial, sans-serif" font-size="16" font-weight="400" fill="#505e6c" >rendering and navigation.</text><path d="M20 221H280" stroke="#b7ddd7"/><rect x="20" y="231" width="55" height="26" rx="7" fill="#ebf9f6"/><text x="33" y="249" font-family="Segoe UI, Arial, sans-serif" font-size="13" font-weight="600" fill="#087c80" >Java</text><text x="134" y="249" font-family="Segoe UI, Arial, sans-serif" font-size="12.5" font-weight="600" fill="#087c80" >Explore repository</text><g transform="translate(264 235) scale(0.7083333333333334)" fill="none" stroke="#087c80" stroke-width="1.8" stroke-linecap="round" stroke-linejoin="round">
  <path d="M7 7h10v10" />
  <path d="M7 17 17 7" />
</g></svg>
